<?xml version="1.0"?>
<svg xmlns="http://www.w3.org/2000/svg" xmlns:xlink="http://www.w3.org/1999/xlink" version="1.1" id="Capa_1" x="0px" y="0px" viewBox="0 0 512 512" style="enable-background:new 0 0 512 512;" xml:space="preserve" width="512px" height="512px" class=""><g><g>
	<polygon style="fill:#C2C2C2" points="412.471,109.25 412.471,440.528 288.761,512 99.529,402.75 99.529,71.472 223.239,0  " data-original="#445C71" class="" data-old_color="#445C71"/>
	<g>
		<polygon style="fill:#6D6D6D" points="412.471,109.25 412.471,440.528 288.761,512 288.761,180.722 99.529,71.472 223.239,0       " data-original="#394F63" class="" data-old_color="#394F63"/>
		<path style="fill:#6D6D6D" d="M263.835,247.5c-1.214,0-2.407-0.32-3.459-0.926l-139.439-80.506    c-2.141-1.236-3.46-3.521-3.459-5.993v-45.696c0-2.472,1.318-4.757,3.459-5.993c2.141-1.236,4.779-1.236,6.919,0l139.439,80.507    c2.141,1.236,3.46,3.521,3.459,5.993v45.696c0.001,1.835-0.728,3.596-2.026,4.893C267.431,246.772,265.671,247.501,263.835,247.5z     M131.315,156.081l125.601,72.514v-29.716l-125.601-72.514V156.081z" data-original="#394F63" class="" data-old_color="#394F63"/>
		<path style="fill:#6D6D6D" d="M263.835,293.196c-1.214,0-2.407-0.32-3.459-0.926l-139.439-80.507    c-2.141-1.236-3.46-3.521-3.459-5.993v-45.696c0-2.472,1.318-4.757,3.459-5.993c2.141-1.236,4.779-1.236,6.919,0l139.439,80.507    c2.141,1.236,3.46,3.521,3.459,5.993v45.696c0.001,1.835-0.728,3.596-2.026,4.893    C267.431,292.468,265.671,293.197,263.835,293.196z M131.315,201.777l125.601,72.513v-29.716l-125.601-72.514V201.777z" data-original="#394F63" class="" data-old_color="#394F63"/>
		<path style="fill:#6D6D6D" d="M263.835,338.892c-1.214,0-2.407-0.319-3.459-0.926L120.937,257.46    c-2.141-1.236-3.46-3.521-3.459-5.993V205.77c0-2.472,1.318-4.757,3.459-5.993c2.141-1.236,4.779-1.236,6.919,0l139.439,80.507    c2.141,1.236,3.46,3.521,3.459,5.993v45.696c0.001,1.835-0.728,3.596-2.026,4.893S265.671,338.893,263.835,338.892z     M131.315,247.473l125.601,72.514V290.27l-125.601-72.513V247.473z" data-original="#394F63" class="" data-old_color="#394F63"/>
	</g>
	<g>
		<path style="fill:#424242" d="M154.268,364.615c-1.212,0.001-2.403-0.318-3.453-0.926l-9.96-5.75    c-2.143-1.235-3.463-3.52-3.464-5.993c-0.001-2.473,1.319-4.759,3.46-5.995c2.142-1.236,4.781-1.236,6.922,0.002l9.959,5.75    c2.714,1.566,4.038,4.761,3.225,7.787S157.401,364.619,154.268,364.615L154.268,364.615z" data-original="#668892" class="active-path" data-old_color="#668892"/>
		<path style="fill:#424242" d="M139.328,380.047c-1.212,0.001-2.403-0.318-3.453-0.926l-9.959-5.75    c-2.143-1.235-3.463-3.52-3.464-5.993c-0.001-2.473,1.319-4.759,3.46-5.995c2.142-1.236,4.781-1.236,6.922,0.002l9.959,5.75    c2.714,1.566,4.038,4.761,3.225,7.787C145.207,377.949,142.462,380.051,139.328,380.047z" data-original="#668892" class="active-path" data-old_color="#668892"/>
		<path style="fill:#424242" d="M169.207,397.297c-1.212,0.001-2.403-0.318-3.453-0.926l-9.96-5.75    c-2.143-1.235-3.463-3.52-3.464-5.993c-0.001-2.473,1.319-4.759,3.46-5.995c2.142-1.236,4.781-1.236,6.922,0.002l9.959,5.75    c2.715,1.566,4.038,4.761,3.225,7.787C175.086,395.199,172.34,397.301,169.207,397.297L169.207,397.297z" data-original="#668892" class="active-path" data-old_color="#668892"/>
		<path style="fill:#424242" d="M184.146,381.872c-1.212,0.001-2.403-0.318-3.453-0.926l-9.959-5.75    c-2.143-1.235-3.463-3.52-3.464-5.993c-0.001-2.473,1.319-4.759,3.46-5.995c2.142-1.236,4.781-1.236,6.922,0.002l9.959,5.75    c2.714,1.566,4.038,4.761,3.225,7.787C190.025,379.773,187.28,381.875,184.146,381.872L184.146,381.872z" data-original="#668892" class="active-path" data-old_color="#668892"/>
		<path style="fill:#424242" d="M214.031,399.122c-1.212,0.001-2.403-0.318-3.453-0.926l-9.959-5.75    c-3.308-1.912-4.441-6.142-2.531-9.451s6.14-4.444,9.45-2.536l9.959,5.75c2.714,1.566,4.038,4.761,3.225,7.787    C219.91,397.023,217.165,399.126,214.031,399.122z" data-original="#668892" class="active-path" data-old_color="#668892"/>
		<path style="fill:#424242" d="M199.092,414.547c-1.212,0.001-2.403-0.318-3.453-0.926l-9.966-5.75    c-2.141-1.236-3.46-3.52-3.461-5.993c0-2.472,1.319-4.757,3.459-5.993c2.141-1.236,4.779-1.237,6.92-0.001l9.966,5.75    c2.714,1.566,4.038,4.761,3.225,7.787C204.971,412.449,202.226,414.552,199.092,414.547L199.092,414.547z" data-original="#668892" class="active-path" data-old_color="#668892"/>
		<path style="fill:#424242" d="M228.97,431.804c-1.212,0.001-2.403-0.318-3.453-0.926l-9.959-5.75    c-2.141-1.236-3.46-3.52-3.461-5.993c0-2.472,1.318-4.757,3.459-5.993c2.141-1.236,4.779-1.237,6.92-0.001l9.959,5.75    c2.714,1.566,4.038,4.761,3.225,7.787C234.849,429.706,232.104,431.808,228.97,431.804z" data-original="#668892" class="active-path" data-old_color="#668892"/>
		<path style="fill:#424242" d="M243.91,416.372c-1.212,0.001-2.403-0.318-3.453-0.926l-9.959-5.75    c-3.308-1.912-4.441-6.142-2.531-9.451s6.14-4.444,9.45-2.536l9.959,5.75c2.714,1.566,4.038,4.761,3.225,7.787    C249.789,414.273,247.043,416.376,243.91,416.372z" data-original="#668892" class="active-path" data-old_color="#668892"/>
		<path style="fill:#424242" d="M258.849,449.054c-1.212,0.001-2.403-0.318-3.453-0.926l-9.959-5.75    c-2.143-1.235-3.463-3.52-3.464-5.993c-0.001-2.473,1.319-4.759,3.46-5.995s4.781-1.236,6.922,0.002l9.959,5.75    c2.714,1.566,4.038,4.761,3.225,7.787C264.728,446.955,261.983,449.058,258.849,449.054L258.849,449.054z" data-original="#668892" class="active-path" data-old_color="#668892"/>
		<path style="fill:#424242" d="M154.268,412.73c-1.212,0.001-2.403-0.318-3.453-0.926l-9.96-5.75    c-2.143-1.235-3.463-3.52-3.464-5.993c-0.001-2.473,1.319-4.759,3.46-5.995c2.142-1.236,4.781-1.236,6.922,0.002l9.959,5.75    c2.714,1.566,4.038,4.761,3.225,7.787S157.401,412.734,154.268,412.73L154.268,412.73z" data-original="#668892" class="active-path" data-old_color="#668892"/>
		<path style="fill:#424242" d="M184.146,429.98c-1.212,0.001-2.403-0.318-3.453-0.926l-9.959-5.75    c-2.143-1.235-3.463-3.52-3.464-5.993c-0.001-2.473,1.319-4.759,3.46-5.995c2.142-1.236,4.781-1.236,6.922,0.002l9.959,5.75    c2.714,1.566,4.038,4.761,3.225,7.787S187.28,429.984,184.146,429.98z" data-original="#668892" class="active-path" data-old_color="#668892"/>
		<path style="fill:#424242" d="M214.031,447.23c-1.212,0.001-2.403-0.318-3.453-0.926l-9.959-5.75    c-3.308-1.912-4.441-6.142-2.531-9.451s6.14-4.444,9.45-2.536l9.959,5.75c2.714,1.566,4.038,4.761,3.225,7.787    S217.165,447.234,214.031,447.23z" data-original="#668892" class="active-path" data-old_color="#668892"/>
		<path style="fill:#424242" d="M243.91,464.48c-1.212,0.001-2.403-0.318-3.453-0.926l-9.96-5.75    c-3.308-1.912-4.441-6.142-2.531-9.451c1.91-3.309,6.14-4.444,9.45-2.536l9.959,5.75c2.715,1.566,4.038,4.761,3.225,7.787    C249.788,462.381,247.043,464.484,243.91,464.48L243.91,464.48z" data-original="#668892" class="active-path" data-old_color="#668892"/>
	</g>
	
		<ellipse transform="matrix(-0.505 -0.8631 0.8631 -0.505 60.983 761.6133)" style="fill:#00AEF6" cx="248.885" cy="363.32" rx="21.061" ry="12.157" data-original="#D8625E" class="" data-old_color="#D8625E"/>
</g></g> </svg>
