<?xml version="1.0"?>
<svg xmlns="http://www.w3.org/2000/svg" xmlns:xlink="http://www.w3.org/1999/xlink" version="1.1" id="Capa_1" x="0px" y="0px" viewBox="0 0 512 512" style="enable-background:new 0 0 512 512;" xml:space="preserve" width="512px" height="512px" class=""><g><g>
	<g>
		<polygon style="fill:#424242" points="89.775,0 54.146,20.55 422.295,509.756 457.854,489.205 457.854,212.585 457.854,212.515       " data-original="#394F63" class="" data-old_color="#394F63"/>
		<polygon style="fill:#424242" points="373.865,469.567 300.502,512 242.148,478.334 122.775,409.39 196.138,367.027     196.208,366.957 234.573,389.12 295.522,424.329   " data-original="#394F63" class="" data-old_color="#394F63"/>
	</g>
	<polygon style="fill:#0091ea" points="422.295,233.065 422.295,509.756 364.853,476.581 286.51,431.342 250.95,410.792    225.561,396.134 187.196,373.97 54.146,297.17 54.146,20.55  " data-original="#445C71" class="" data-old_color="#445C71"/>
	<path style="fill:#FFEA00" d="M332.222,297.581l21.407,12.359c2.852,1.647,5.164-0.101,5.164-3.904v-22.63   c-0.059-3.922-1.976-7.583-5.164-9.867l-21.407-12.359c-2.852-1.647-5.164,0.101-5.164,3.904v22.63   C327.117,291.635,329.033,295.297,332.222,297.581z" data-original="#78C5D6" class="active-path" data-old_color="#78C5D6"/>
	<path style="fill:#EA80FC" d="M262.404,257.271l21.407,12.359c2.852,1.647,5.164-0.101,5.164-3.904v-22.63   c-0.059-3.922-1.976-7.583-5.164-9.867l-21.407-12.359c-2.852-1.647-5.164,0.101-5.164,3.904v22.63   C257.299,251.326,259.215,254.987,262.404,257.271z" data-original="#639085" class="" data-old_color="#639085"/>
	<path style="fill:#64DD17" d="M192.586,216.962l21.407,12.359c2.852,1.647,5.164-0.101,5.164-3.904v-22.63   c-0.059-3.922-1.976-7.583-5.164-9.867l-21.407-12.359c-2.852-1.647-5.164,0.101-5.164,3.904v22.63   C187.481,211.016,189.397,214.678,192.586,216.962z" data-original="#98A9D5" class="" data-old_color="#98A9D5"/>
	<g>
		<path style="fill:#FF1744" d="M122.768,176.652l21.407,12.359c2.852,1.647,5.164-0.101,5.164-3.904v-22.63    c-0.059-3.922-1.976-7.583-5.164-9.867l-21.407-12.359c-2.852-1.647-5.164,0.101-5.164,3.904v22.63    C117.663,170.707,119.579,174.368,122.768,176.652z" data-original="#E07585" class="" data-old_color="#E07585"/>
		<path style="fill:#FF1744" d="M332.222,377.663l21.407,12.359c2.852,1.647,5.164-0.101,5.164-3.904v-22.63    c-0.059-3.922-1.976-7.583-5.164-9.867l-21.407-12.359c-2.852-1.647-5.164,0.101-5.164,3.904v22.63    C327.117,371.718,329.033,375.379,332.222,377.663z" data-original="#E07585" class="" data-old_color="#E07585"/>
	</g>
	<path style="fill:#64DD17" d="M262.404,337.354l21.407,12.359c2.852,1.647,5.164-0.101,5.164-3.904v-22.63   c-0.059-3.922-1.976-7.583-5.164-9.867l-21.407-12.359c-2.852-1.647-5.164,0.101-5.164,3.904v22.63   C257.299,331.408,259.215,335.069,262.404,337.354z" data-original="#98A9D5" class="" data-old_color="#98A9D5"/>
	<path style="fill:#FFEA00" d="M192.586,297.044l21.407,12.359c2.852,1.647,5.164-0.101,5.164-3.904v-22.63   c-0.059-3.922-1.976-7.583-5.164-9.867l-21.407-12.359c-2.852-1.647-5.164,0.101-5.164,3.904v22.63   C187.481,291.099,189.397,294.76,192.586,297.044z" data-original="#78C5D6" class="active-path" data-old_color="#78C5D6"/>
	<path style="fill:#EA80FC" d="M122.768,256.735l21.407,12.359c2.852,1.647,5.164-0.101,5.164-3.904v-22.63   c-0.059-3.922-1.976-7.583-5.164-9.867l-21.407-12.359c-2.852-1.647-5.164,0.101-5.164,3.904v22.63   C117.663,250.789,119.579,254.451,122.768,256.735z" data-original="#639085" class="" data-old_color="#639085"/>
	<polygon style="fill:#6D6D6D" points="250.95,410.792 250.95,454.488 225.561,439.829 225.561,396.134  " data-original="#5496CE" class="" data-old_color="#5496CE"/>
	<polygon style="fill:#1B1B1B" points="286.51,431.342 286.51,433.938 250.95,454.488 250.95,410.792  " data-original="#336A93" class="" data-old_color="#336A93"/>
</g></g> </svg>
