<?xml version="1.0"?>
<svg xmlns="http://www.w3.org/2000/svg" xmlns:xlink="http://www.w3.org/1999/xlink" version="1.1" id="Capa_1" x="0px" y="0px" viewBox="0 0 511.907 511.907" style="enable-background:new 0 0 511.907 511.907;" xml:space="preserve" width="512px" height="512px" class=""><g><g>
	<path style="fill:#6D6D6D" d="M393.685,401.245v56.943c0.363,4.792-1.264,9.522-4.497,13.077l-0.277,0.208l-0.277,0.138   l-2.145,1.245l-0.138,0.138l-0.208,0.069l-63.447,36.601l-0.208,0.138l-0.484,0.346l-1.591,0.899   c-3.563,1.473-7.631,1.03-10.794-1.176l-17.436-10.102l-6.919-3.944l-15.083-8.718l-6.919-4.013l-15.083-8.718l-6.919-3.944   l-15.083-8.718l-6.919-4.013l-15.083-8.718l-6.919-3.944v-0.069l-15.083-8.718l-6.919-3.944l-15.083-8.718l-6.919-4.013   l-17.505-10.102c-10.843-7.77-17.362-20.219-17.574-33.557v-57.704l209.021,120.666L393.685,401.245z" data-original="#B4B4B3" class="" data-old_color="#B4B4B3"/>
	<path style="fill:#424242" d="M393.685,420.549v37.639c0.363,4.792-1.264,9.522-4.497,13.077l-0.277,0.208l-0.277,0.138   l-2.145,1.245l-0.138,0.138l-0.208,0.069l-63.447,36.601l-0.208,0.138c3.396-3.523,5.11-8.338,4.705-13.215v-46.011l2.145,1.245   c2.298,1.533,5.133,2.035,7.818,1.384l2.975-1.799h0.069l0.069-0.069h0.069l0.484-0.277L393.685,420.549z" data-original="#717275" class="active-path" data-old_color="#717275"/>
	<path style="fill:#C2C2C2" d="M410.221,155.209V402.56c0.274,3.869-1.023,7.685-3.598,10.586l-0.208,0.138l-2.352,1.384   l-0.484,0.277h-0.069l-0.069,0.069h-0.069l-9.686,5.535l-52.861,30.512l-0.484,0.277h-0.069l-0.069,0.069h-0.069l-2.975,1.799   c-2.685,0.651-5.52,0.149-7.818-1.384l-2.145-1.245L118.174,329.911l-2.145-1.245c-8.844-6.349-14.157-16.513-14.322-27.399V53.916   c-0.405-4.985,1.36-9.902,4.843-13.492h0.069l0.484-0.346l1.591-0.899l0.554-0.346l0.138-0.069l63.654-36.67l0.277-0.138   l2.006-1.176l0.623-0.346c3.418-0.927,7.069-0.348,10.032,1.591l206.461,119.282C403.426,129.131,410.03,141.721,410.221,155.209z" data-original="#DADCDA" class="" data-old_color="#DADCDA"/>
	<path style="fill:#6D6D6D" d="M410.221,155.209V402.56c0.274,3.869-1.023,7.685-3.598,10.586l-0.208,0.138l-2.352,1.384   l-0.484,0.277h-0.069l-0.069,0.069h-0.069l-9.686,5.535l-52.861,30.512l-0.484,0.277h-0.069c2.452-2.878,3.67-6.607,3.39-10.378   V193.609c-0.166-13.477-6.744-26.069-17.712-33.903L119.488,40.493c-3.156-2.205-7.201-2.697-10.794-1.315l0.554-0.346l0.138-0.069   l63.654-36.67l0.277-0.138l2.006-1.176l0.623-0.346c3.418-0.927,7.069-0.348,10.032,1.591l206.461,119.282   C403.426,129.131,410.03,141.721,410.221,155.209z" data-original="#B4B4B3" class="" data-old_color="#B4B4B3"/>
	<path style="fill:#0091ea" d="M138.053,240.457l169.295,97.743c7.924,4.575,14.348-0.281,14.348-10.847V195.318   c-0.111-7.319-3.687-14.152-9.638-18.415L133.342,73.721c-5.323-3.073-9.638,0.189-9.638,7.286v132.034   C123.869,223.938,129.193,234.11,138.053,240.457z" data-original="#639085" class="" data-old_color="#639085"/>
	<g>
		<path style="fill:#C2C2C2" d="M292.184,460.194v39.576l-6.919-3.944v-35.632c-0.009-0.92,0.353-1.805,1.003-2.456    c0.651-0.651,1.536-1.012,2.456-1.003C290.633,456.741,292.179,458.286,292.184,460.194z" data-original="#DADCDA" class="" data-old_color="#DADCDA"/>
		<path style="fill:#C2C2C2" d="M270.182,447.464v39.645l-6.919-4.013v-35.632c0.006-1.908,1.551-3.454,3.459-3.459    C268.621,444.034,270.152,445.566,270.182,447.464z" data-original="#DADCDA" class="" data-old_color="#DADCDA"/>
		<path style="fill:#C2C2C2" d="M248.18,434.802v39.576l-6.919-3.944v-35.632c-0.009-0.92,0.353-1.805,1.003-2.456    c0.651-0.651,1.536-1.012,2.456-1.003C246.629,431.348,248.175,432.894,248.18,434.802z" data-original="#DADCDA" class="" data-old_color="#DADCDA"/>
		<path style="fill:#C2C2C2" d="M226.178,422.071v39.645l-6.919-4.013v-35.632c-0.009-0.92,0.352-1.805,1.003-2.456    s1.536-1.012,2.456-1.003C224.627,418.617,226.173,420.163,226.178,422.071z" data-original="#DADCDA" class="" data-old_color="#DADCDA"/>
		<path style="fill:#C2C2C2" d="M204.176,409.34v39.645l-6.919-3.944V409.34c0.005-1.908,1.551-3.454,3.459-3.459    C202.615,405.911,204.146,407.442,204.176,409.34z" data-original="#DADCDA" class="" data-old_color="#DADCDA"/>
		<path style="fill:#C2C2C2" d="M182.174,396.679v39.576l-6.919-3.944v-35.632c-0.009-0.92,0.352-1.805,1.003-2.456    c0.651-0.651,1.536-1.012,2.456-1.003C180.623,393.225,182.168,394.771,182.174,396.679z" data-original="#DADCDA" class="" data-old_color="#DADCDA"/>
		<path style="fill:#C2C2C2" d="M160.172,383.948v39.645l-6.919-4.013v-35.632c0.005-1.908,1.551-3.454,3.459-3.459    C158.61,380.519,160.142,382.05,160.172,383.948z" data-original="#DADCDA" class="" data-old_color="#DADCDA"/>
	</g>
	<polygon style="fill:#64DD17" points="283.199,399.958 321.696,422.182 321.696,403.259 283.199,381.028  " data-original="#445C71" class="" data-old_color="#445C71"/>
	<polygon style="fill:#FF1744" points="123.704,307.874 145.706,320.571 145.706,301.647 123.704,288.944  " data-original="#D8625E" class="" data-old_color="#D8625E"/>
	<g>
		<path style="fill:#6D6D6D" d="M178.7,286.313c-0.608,0.001-1.205-0.16-1.73-0.466l-54.993-31.757    c-1.652-0.956-2.217-3.07-1.262-4.722c0.955-1.653,3.069-2.219,4.722-1.264l54.993,31.757c1.354,0.783,2.014,2.378,1.609,3.889    C181.634,285.261,180.265,286.312,178.7,286.313z" data-original="#B4B4B3" class="" data-old_color="#B4B4B3"/>
		<path style="fill:#6D6D6D" d="M189.7,311.583c-0.608,0-1.205-0.16-1.73-0.466l-65.993-38.101    c-1.652-0.956-2.217-3.07-1.262-4.722c0.955-1.653,3.069-2.219,4.722-1.264l65.993,38.101c1.354,0.783,2.014,2.378,1.609,3.889    S191.265,311.582,189.7,311.583L189.7,311.583z" data-original="#B4B4B3" class="" data-old_color="#B4B4B3"/>
	</g>
	<g>
		<path style="fill:#F5F5F5" d="M140.133,129.124c-1.57-0.001-2.942-1.058-3.343-2.575s0.269-3.115,1.634-3.891l22.635-12.892    c1.074-0.611,2.393-0.602,3.459,0.023c1.066,0.625,1.718,1.771,1.709,3.007c-0.008,1.236-0.675,2.373-1.749,2.984l-22.635,12.892    C141.321,128.966,140.732,129.122,140.133,129.124z" data-original="#91D4C5" class="" data-old_color="#91D4C5"/>
		<path style="fill:#F5F5F5" d="M140.133,161.57c-1.57-0.001-2.942-1.058-3.343-2.575c-0.401-1.517,0.27-3.115,1.634-3.891    l17.824-10.156c1.661-0.944,3.772-0.363,4.716,1.297c0.944,1.661,0.363,3.772-1.297,4.716l-17.824,10.156    C141.321,161.413,140.732,161.568,140.133,161.57z" data-original="#91D4C5" class="" data-old_color="#91D4C5"/>
		<path style="fill:#F5F5F5" d="M174.079,142.232c-1.57-0.001-2.942-1.058-3.343-2.575s0.27-3.115,1.634-3.891l16.973-9.669    c1.074-0.611,2.393-0.602,3.459,0.023c1.066,0.625,1.718,1.771,1.709,3.007c-0.008,1.236-0.675,2.373-1.749,2.984l-16.973,9.669    C175.267,142.074,174.678,142.23,174.079,142.232z" data-original="#91D4C5" class="" data-old_color="#91D4C5"/>
	</g>
</g></g> </svg>
