<?xml version="1.0"?>
<svg xmlns="http://www.w3.org/2000/svg" xmlns:xlink="http://www.w3.org/1999/xlink" version="1.1" id="Capa_1" x="0px" y="0px" viewBox="0 0 512 512" style="enable-background:new 0 0 512 512;" xml:space="preserve" width="512px" height="512px" class=""><g><g>
	<g>
		<polygon style="fill:#C2C2C2" points="124.714,378.534 88.597,399.36 88.597,399.429 59.33,382.616 59.261,340.964     88.528,357.708   " data-original="#C9CED1" class="" data-old_color="#C9CED1"/>
		<polygon style="fill:#C2C2C2" points="311.87,470.071 311.87,494.979 283.572,511.308 254.305,494.495 254.236,452.843     283.503,469.656 298.102,478.028   " data-original="#C9CED1" class="" data-old_color="#C9CED1"/>
		<polygon style="fill:#C2C2C2" points="453.362,388.428 453.362,413.267 425.064,429.596 403.477,417.211 425.064,404.757   " data-original="#C9CED1" class="" data-old_color="#C9CED1"/>
	</g>
	<polygon style="fill:#424242" points="467.961,380.679 453.362,389.12 425.064,405.449 403.477,417.903 311.87,470.763    298.102,478.72 283.503,470.348 254.236,453.535 124.714,379.226 88.528,358.4 44.662,333.215 44.454,254.824 44.246,176.432    44.039,98.041 213.829,0 467.338,145.505 467.754,302.288  " data-original="#445C71" class="" data-old_color="#445C71"/>
	<polygon style="fill:#C2C2C2" points="297.894,400.329 44.454,254.824 44.246,176.432 297.686,321.937  " data-original="#668892" class="" data-old_color="#668892"/>
	<polygon style="fill:#6D6D6D" points="311.87,470.763 311.87,495.671 283.572,512 283.503,470.348 298.102,478.72  " data-original="#A5B4B4" class="" data-old_color="#A5B4B4"/>
	<g>
		
			<ellipse transform="matrix(-0.505 -0.8631 0.8631 -0.505 -147.3959 548.298)" style="fill:#26B6F6" cx="83.527" cy="316.415" rx="20.611" ry="11.901" data-original="#74E1C5" class="" data-old_color="#74E1C5"/>
		
			<ellipse transform="matrix(-0.505 -0.8631 0.8631 -0.505 -80.0965 430.1414)" style="fill:#26B6F6" cx="83.295" cy="238.038" rx="20.611" ry="11.901" data-original="#74E1C5" class="" data-old_color="#74E1C5"/>
	</g>
	<g>
		<path style="fill:#424242" d="M273.484,367.385c-3.813,0-6.908-3.085-6.919-6.899l-0.088-26.676    c-0.011-3.821,3.077-6.928,6.899-6.939h0.02c3.813,0,6.908,3.085,6.919,6.899l0.088,26.676c0.005,1.835-0.718,3.597-2.012,4.898    c-1.294,1.301-3.051,2.035-4.887,2.041H273.484z" data-original="#445C71" class="" data-old_color="#445C71"/>
		<path style="fill:#424242" d="M253.984,356.196c-3.813,0-6.908-3.085-6.919-6.899l-0.088-26.682    c-0.005-1.835,0.718-3.597,2.012-4.898s3.051-2.035,4.887-2.041h0.02c3.813,0,6.908,3.085,6.919,6.899l0.088,26.682    c0.011,3.821-3.078,6.928-6.899,6.939H253.984z" data-original="#445C71" class="" data-old_color="#445C71"/>
		<path style="fill:#424242" d="M234.484,345.007c-3.813,0-6.908-3.085-6.919-6.899l-0.088-26.682    c-0.005-1.835,0.718-3.597,2.012-4.898s3.051-2.035,4.886-2.041h0.02c3.813,0,6.908,3.085,6.919,6.899l0.088,26.682    c0.005,1.835-0.718,3.597-2.012,4.898c-1.294,1.301-3.051,2.035-4.886,2.041H234.484z" data-original="#445C71" class="" data-old_color="#445C71"/>
		<path style="fill:#424242" d="M214.984,333.818c-3.813,0-6.908-3.085-6.919-6.899l-0.088-26.682    c-0.011-3.821,3.078-6.928,6.899-6.939h0.02c3.813,0,6.908,3.086,6.919,6.899l0.088,26.682c0.005,1.835-0.718,3.597-2.012,4.898    s-3.051,2.035-4.886,2.041H214.984z" data-original="#445C71" class="" data-old_color="#445C71"/>
		<path style="fill:#424242" d="M195.484,322.622c-3.813,0-6.908-3.085-6.919-6.899l-0.088-26.676    c-0.005-1.835,0.718-3.597,2.012-4.898c1.294-1.301,3.051-2.035,4.886-2.041h0.02c3.813,0,6.908,3.085,6.919,6.899l0.088,26.676    c0.011,3.821-3.078,6.928-6.899,6.939H195.484z" data-original="#445C71" class="" data-old_color="#445C71"/>
		<path style="fill:#424242" d="M175.984,311.432c-3.813,0-6.908-3.085-6.919-6.899l-0.088-26.676    c-0.011-3.821,3.078-6.928,6.899-6.939h0.02c3.813,0,6.908,3.085,6.919,6.899l0.088,26.676c0.005,1.835-0.718,3.597-2.012,4.898    c-1.294,1.301-3.051,2.035-4.886,2.041H175.984z" data-original="#445C71" class="" data-old_color="#445C71"/>
	</g>
	<polygon style="fill:#424242" points="467.546,223.896 297.686,321.937 297.479,243.546 44.039,98.041 213.829,0 467.338,145.505     " data-original="#394F63" class="active-path" data-old_color="#394F63"/>
	<polygon style="fill:#6D6D6D" points="467.754,302.288 297.894,400.329 297.686,321.937 467.546,223.896  " data-original="#4F6F7F" class="" data-old_color="#4F6F7F"/>
	<g>
		<polygon style="fill:#424242" points="467.961,380.679 453.362,389.12 425.064,405.449 403.477,417.903 311.87,470.763     298.102,478.72 297.894,400.329 467.754,302.288   " data-original="#394F63" class="active-path" data-old_color="#394F63"/>
		<polygon style="fill:#424242" points="467.961,223.184 453.362,231.625 425.064,247.953 403.477,260.407 311.87,313.268     298.102,321.225 297.894,242.833 467.754,144.792   " data-original="#394F63" class="active-path" data-old_color="#394F63"/>
	</g>
	
		<ellipse transform="matrix(-0.505 -0.8631 0.8631 -0.505 -12.6231 311.973)" style="fill:#26B6F6" cx="83.147" cy="159.606" rx="20.611" ry="11.901" data-original="#74E1C5" class="" data-old_color="#74E1C5"/>
	<g>
		<path style="fill:#C2C2C2" d="M273.687,445.784c-3.813,0-6.908-3.085-6.919-6.899l-0.088-26.682    c-0.011-3.821,3.078-6.928,6.899-6.939h0.02c3.813,0,6.908,3.085,6.919,6.899l0.088,26.682c0.011,3.821-3.078,6.928-6.899,6.939    H273.687z" data-original="#668892" class="" data-old_color="#668892"/>
		<path style="fill:#C2C2C2" d="M254.187,434.595c-3.813,0-6.908-3.085-6.919-6.899l-0.088-26.682    c-0.011-3.821,3.078-6.928,6.899-6.939h0.02c3.813,0,6.908,3.085,6.919,6.899l0.088,26.682c0.011,3.821-3.077,6.928-6.899,6.939    H254.187z" data-original="#668892" class="" data-old_color="#668892"/>
		<path style="fill:#C2C2C2" d="M234.687,423.405c-3.813,0-6.908-3.085-6.919-6.899l-0.088-26.682    c-0.011-3.821,3.077-6.928,6.899-6.939h0.02c3.813,0,6.908,3.085,6.919,6.899l0.088,26.682c0.011,3.821-3.078,6.928-6.899,6.939    H234.687z" data-original="#668892" class="" data-old_color="#668892"/>
		<path style="fill:#C2C2C2" d="M215.187,412.216c-3.813,0-6.908-3.085-6.919-6.899l-0.088-26.682    c-0.011-3.821,3.078-6.928,6.899-6.939c3.801,0.036,6.88,3.097,6.939,6.899l0.088,26.682c0.011,3.821-3.077,6.928-6.899,6.939    H215.187z" data-original="#668892" class="" data-old_color="#668892"/>
		<path style="fill:#C2C2C2" d="M195.693,401.021c-3.813,0-6.908-3.085-6.919-6.899l-0.088-26.676    c-0.011-3.821,3.078-6.928,6.899-6.939h0.02c3.813,0,6.908,3.085,6.919,6.899l0.088,26.676c0.011,3.821-3.077,6.928-6.899,6.939    H195.693z" data-original="#668892" class="" data-old_color="#668892"/>
		<path style="fill:#C2C2C2" d="M176.193,389.831c-3.813,0-6.908-3.085-6.919-6.899l-0.088-26.682    c-0.011-3.821,3.077-6.928,6.899-6.939h0.02c3.813,0,6.908,3.085,6.919,6.899l0.088,26.682c0.011,3.821-3.078,6.928-6.899,6.939    H176.193z" data-original="#668892" class="" data-old_color="#668892"/>
		<path style="fill:#C2C2C2" d="M273.274,288.986c-3.813,0-6.908-3.085-6.919-6.899l-0.088-26.676    c-0.011-3.821,3.078-6.928,6.899-6.939h0.02c3.813,0,6.908,3.085,6.919,6.899l0.088,26.676c0.011,3.821-3.078,6.928-6.899,6.939    L273.274,288.986z" data-original="#668892" class="" data-old_color="#668892"/>
		<path style="fill:#C2C2C2" d="M253.774,277.797c-3.813,0-6.908-3.085-6.919-6.899l-0.088-26.682    c-0.011-3.821,3.077-6.928,6.899-6.939h0.02c3.813,0,6.908,3.085,6.919,6.899l0.088,26.682c0.011,3.821-3.078,6.928-6.899,6.939    H253.774z" data-original="#668892" class="" data-old_color="#668892"/>
		<path style="fill:#C2C2C2" d="M234.282,266.608c-3.813,0-6.908-3.085-6.919-6.899l-0.088-26.682    c-0.011-3.821,3.078-6.928,6.899-6.939h0.02c3.813,0,6.908,3.085,6.919,6.899l0.088,26.682c0.011,3.821-3.078,6.928-6.899,6.939    H234.282z" data-original="#668892" class="" data-old_color="#668892"/>
		<path style="fill:#C2C2C2" d="M214.781,255.419c-3.813,0-6.908-3.085-6.919-6.899l-0.088-26.682    c-0.011-3.821,3.078-6.928,6.899-6.939h0.02c3.813,0,6.908,3.085,6.919,6.899l0.088,26.682c0.011,3.821-3.078,6.928-6.899,6.939    H214.781z" data-original="#668892" class="" data-old_color="#668892"/>
		<path style="fill:#C2C2C2" d="M195.281,244.23c-3.813,0-6.908-3.085-6.919-6.899l-0.088-26.682    c-0.011-3.821,3.078-6.928,6.899-6.939h0.02c3.813,0,6.908,3.085,6.919,6.899l0.088,26.682c0.011,3.821-3.077,6.928-6.899,6.939    H195.281z" data-original="#668892" class="" data-old_color="#668892"/>
		<path style="fill:#C2C2C2" d="M175.781,233.034c-3.813,0-6.908-3.085-6.919-6.899l-0.088-26.676    c-0.011-3.821,3.077-6.928,6.899-6.939h0.02c3.813,0,6.908,3.085,6.919,6.899l0.088,26.676c0.011,3.821-3.078,6.928-6.899,6.939    H175.781z" data-original="#668892" class="" data-old_color="#668892"/>
	</g>
	<g>
		<polygon style="fill:#6D6D6D" points="453.362,389.12 453.362,413.959 425.064,430.288 425.064,405.449   " data-original="#A5B4B4" class="" data-old_color="#A5B4B4"/>
		<polygon style="fill:#6D6D6D" points="124.714,379.226 88.597,400.052 88.528,358.4   " data-original="#A5B4B4" class="" data-old_color="#A5B4B4"/>
	</g>
</g></g> </svg>
