<?xml version="1.0"?>
<svg xmlns="http://www.w3.org/2000/svg" xmlns:xlink="http://www.w3.org/1999/xlink" version="1.1" id="Capa_1" x="0px" y="0px" viewBox="0 0 511.963 511.963"  xml:space="preserve" width="512px" height="512px"><g><g><g>	<path style="fill:#6d6d6d" d="M91.691,19.181l29.808-17.184l1.964-1.192l0.351-0.21h0.07c3.701-1.18,7.739-0.585,10.941,1.613    l274.516,158.58c11.631,8.29,18.613,21.628,18.797,35.91V418.12c0.489,5.442-1.524,10.81-5.471,14.589l-0.351,0.21l-1.543,0.842    l-0.421,0.281l-29.668,17.113L91.691,19.181z" data-original="#A5B4B4" class="" data-old_color="#A5B4B4"/>	<path style="fill:#6d6d6d" d="M341.028,423.029v9.749c-0.906,16.693-9.744,31.944-23.776,41.03l-51.691,35.84    c-4.101,2.87-9.497,3.089-13.817,0.561l-115.516-67.051c-2.018-1.193-3.232-3.385-3.174-5.729c0.058-2.344,1.38-4.472,3.454-5.564    l56.881-29.528c14.01-9.107,22.841-24.346,23.776-41.03v-9.679L341.028,423.029z" data-original="#A5B4B4" class="" data-old_color="#A5B4B4"/></g><path style="fill:#424242" d="M396.015,215.284v221.422c0.472,5.371-1.484,10.671-5.33,14.448l-0.07,0.07h-0.07l-0.281,0.21   l-1.473,0.842c-3.858,1.545-8.234,1.044-11.643-1.333l-36.121-20.831v-0.07l-123.862-71.399v-0.07l-114.534-66.069   c-11.597-8.351-18.566-21.691-18.797-35.98V35.032c-0.534-5.441,1.518-10.817,5.541-14.518l0.21-0.21l1.894-1.052l0.14-0.07h0.07   c3.7-1.184,7.74-0.588,10.941,1.613l274.516,158.51C388.789,187.626,395.79,200.977,396.015,215.284z" data-original="#C9CED1" class="" data-old_color="#C9CED1"/><path style="fill:#00aef6" d="M396.015,215.284v190.983h-0.07L83.836,226.015V35.032c-0.534-5.441,1.518-10.817,5.541-14.518   l0.21-0.21l1.894-1.052l0.14-0.07h0.07c3.7-1.184,7.74-0.588,10.941,1.613l274.516,158.51   C388.789,187.626,395.789,200.977,396.015,215.284z" data-original="#445C71" class="" data-old_color="#445C71"/><path style="fill:#EA80FC" d="M192.682,253.97l-16.653-9.614c-3.651-2.615-5.845-6.807-5.913-11.297v-16.898   c0-4.354,2.647-6.355,5.913-4.47l16.653,9.614c3.651,2.615,5.845,6.807,5.913,11.297V249.5   C198.595,253.854,195.947,255.855,192.682,253.97z" data-original="#98A9D5" class="" data-old_color="#98A9D5"/><path style="fill:#FFEA00" d="M243.942,283.565l-16.652-9.614c-3.651-2.615-5.845-6.807-5.913-11.297v-16.898   c0-4.354,2.647-6.355,5.913-4.47l16.652,9.614c3.651,2.615,5.845,6.807,5.913,11.297v16.898   C249.854,283.449,247.207,285.45,243.942,283.565z" data-original="#639085" class="" data-old_color="#639085"/><path style="fill:#64DD17" d="M295.201,313.159l-16.653-9.614c-3.651-2.615-5.845-6.807-5.913-11.297V275.35   c0-4.354,2.647-6.355,5.913-4.47l16.653,9.614c3.651,2.615,5.845,6.807,5.913,11.297v16.898   C301.114,313.044,298.467,315.045,295.201,313.159z" data-original="#95C2D5" class="" data-old_color="#95C2D5"/><path style="fill:#0d47a1" d="M346.461,342.754l-16.652-9.614c-3.651-2.615-5.845-6.807-5.913-11.297v-16.898   c0-4.354,2.647-6.355,5.913-4.47l16.653,9.614c3.651,2.615,5.845,6.807,5.913,11.297v16.897   C352.373,342.638,349.726,344.639,346.461,342.754z" data-original="#D8625E" class="" data-old_color="#D8625E"/><path style="fill:#FF171B" d="M141.423,224.375l-16.653-9.614c-3.651-2.615-5.845-6.807-5.913-11.297v-16.898   c0-4.354,2.647-6.355,5.913-4.47l16.653,9.614c3.651,2.615,5.845,6.807,5.913,11.297v16.898   C147.335,224.259,144.688,226.261,141.423,224.375z" data-original="#E07585" class="active-path" data-old_color="#E07585"/><g>	<path style="fill:#424242" d="M306.809,238.444c-1.251,0.002-2.407-0.664-3.034-1.746l-17.089-29.466    c-0.966-1.675-0.395-3.817,1.278-4.787c1.673-0.97,3.816-0.404,4.79,1.267l17.089,29.466c0.63,1.085,0.632,2.424,0.006,3.511    C309.223,237.775,308.063,238.445,306.809,238.444L306.809,238.444z" data-original="#C9CED1" class="" data-old_color="#C9CED1"/>	<path style="fill:#424242" d="M284.028,218.759c-0.93,0.001-1.823-0.369-2.48-1.027s-1.027-1.55-1.027-2.48v-19.603    c0-1.937,1.57-3.507,3.507-3.507c1.937,0,3.507,1.57,3.507,3.507v19.603c0.001,0.93-0.369,1.823-1.027,2.48    S284.958,218.759,284.028,218.759z" data-original="#C9CED1" class="" data-old_color="#C9CED1"/>	<path style="fill:#424242" d="M301.117,209.019c-0.616,0.001-1.221-0.163-1.753-0.473l-17.089-9.863    c-1.667-0.973-2.234-3.11-1.268-4.78c0.966-1.671,3.1-2.247,4.775-1.288l17.089,9.863c1.373,0.794,2.042,2.411,1.631,3.943    C304.09,207.953,302.703,209.018,301.117,209.019L301.117,209.019z" data-original="#C9CED1" class="" data-old_color="#C9CED1"/></g></g></g></svg>