<?xml version="1.0"?>
<svg xmlns="http://www.w3.org/2000/svg" xmlns:xlink="http://www.w3.org/1999/xlink" version="1.1" id="Layer_1" x="0px" y="0px" viewBox="0 0 511.993 511.993" style="enable-background:new 0 0 511.993 511.993;" xml:space="preserve" width="512px" height="512px"><g><g><g><rect x="49.888" y="96.182" width="54.961" height="319.628" data-original="#000000" class="active-path" data-old_color="#000000" fill="#FEFEFE"/>	</g></g><g><g><rect x="462.099" y="415.811" width="41.221" height="54.961" data-original="#000000" class="active-path" data-old_color="#000000" fill="#FEFEFE"/></g></g><g><g><rect x="407.138" y="96.182" width="54.961" height="319.628" data-original="#000000" class="active-path" data-old_color="#000000" fill="#FEFEFE"/></g></g><g><g><rect x="8.672" y="415.811" width="41.221" height="54.961" data-original="#000000" class="active-path" data-old_color="#000000" fill="#FEFEFE"/></g></g><g><g><rect x="407.138" y="470.772" width="54.961" height="41.221" data-original="#000000" class="active-path" data-old_color="#000000" fill="#FEFEFE"/></g></g><g><g><rect x="49.888" y="470.772" width="54.961" height="41.221" data-original="#000000" class="active-path" data-old_color="#000000" fill="#FEFEFE"/></g></g><g><g><path d="M462.102,41.221V0H407.14v41.221H104.853V0H49.891v41.221H8.67v54.961h41.221V41.224h54.961v54.722h111.301l-0.028,0.016    L104.854,415.818v54.961h302.288v-54.961L296.314,95.963l-0.027-0.016H407.14V41.224h54.961v54.959h41.221V41.221H462.102z     M256.222,195.521l28.382,99.115h-58.116L256.222,195.521z M298.57,353.197l19.37,62.62H194.503l18.92-62.62H298.57z" data-original="#000000" class="active-path" data-old_color="#000000" fill="#FEFEFE"/></g></g></g></svg>